<svg width="75" height="37" viewBox="0 0 75 37" fill="none" xmlns="http://www.w3.org/2000/svg">
<path d="M10.3281 13.875C10.9375 14 11.5547 14.0859 12.1797 14.1328C12.8047 14.1797 13.4375 14.2031 14.0781 14.2031C16.1406 14.2031 17.8281 13.8516 19.1406 13.1484C20.4531 12.4453 21.4844 11.4766 22.2344 10.2422C22.9844 9.00781 23.5078 7.55469 23.8047 5.88281C24.1016 4.19531 24.2656 2.375 24.2969 0.421875C25.6406 0.484375 26.9062 0.578125 28.0938 0.703125C29.2812 0.8125 30.3359 0.929688 31.2578 1.05469C32.3203 1.19531 33.3125 1.34375 34.2344 1.5V7.45312C34 7.375 33.6953 7.28906 33.3203 7.19531C32.9609 7.10156 32.5547 7.00781 32.1016 6.91406C31.6641 6.80469 31.1875 6.70312 30.6719 6.60938C30.1719 6.5 29.6562 6.39062 29.125 6.28125C29.0156 7.28125 28.8516 8.27344 28.6328 9.25781C28.4297 10.2266 28.1406 11.1562 27.7656 12.0469C27.3906 12.9375 26.9141 13.7578 26.3359 14.5078C25.7734 15.2422 25.0781 15.875 24.25 16.4062C25.3438 16.7656 26.3125 17.2969 27.1562 18C28 18.7031 28.7266 19.5156 29.3359 20.4375C29.9609 21.3438 30.4766 22.3359 30.8828 23.4141C31.3047 24.4922 31.6406 25.5859 31.8906 26.6953C32.1406 27.8047 32.3203 28.9141 32.4297 30.0234C32.5391 31.1172 32.5938 32.1406 32.5938 33.0938C32.5938 33.6094 32.5781 34.1094 32.5469 34.5938C32.5312 35.0625 32.5 35.5 32.4531 35.9062H26.9219C27 35.3438 27.0469 34.8047 27.0625 34.2891C27.0938 33.7578 27.1094 33.2344 27.1094 32.7188C27.1094 30.6875 26.8672 28.8594 26.3828 27.2344C25.8984 25.6094 25.2188 24.2344 24.3438 23.1094C23.4688 21.9688 22.4219 21.1016 21.2031 20.5078C20 19.8984 18.6719 19.5938 17.2188 19.5938C16.2344 19.5938 15.3984 19.6172 14.7109 19.6641C14.0234 19.7109 13.4219 19.7812 12.9062 19.875C12.3906 19.9531 11.9297 20.0469 11.5234 20.1562C11.1328 20.2656 10.7344 20.375 10.3281 20.4844V35.9062H4.5625V6.46875C3.67188 6.65625 2.84375 6.83594 2.07812 7.00781C1.32812 7.16406 0.765625 7.3125 0.390625 7.45312V1.5C1.28125 1.34375 2.26562 1.19531 3.34375 1.05469C4.25 0.929688 5.30469 0.8125 6.50781 0.703125C7.71094 0.578125 8.98438 0.484375 10.3281 0.421875V13.875ZM53.6875 0.1875C55.25 0.1875 56.8438 0.265625 58.4688 0.421875C60.1094 0.5625 61.7031 0.820312 63.25 1.19531C64.7969 1.55469 66.25 2.0625 67.6094 2.71875C68.9688 3.35938 70.1562 4.17969 71.1719 5.17969C72.2031 6.16406 73.0156 7.35156 73.6094 8.74219C74.2031 10.1172 74.5 11.7344 74.5 13.5938C74.5 16.1562 74.0391 18.3203 73.1172 20.0859C72.1953 21.8359 70.9375 23.25 69.3438 24.3281C70.0156 25.3594 70.5938 26.4375 71.0781 27.5625C71.5625 28.6875 71.9531 29.7812 72.25 30.8438C72.5625 31.8906 72.7891 32.8672 72.9297 33.7734C73.0703 34.6797 73.1406 35.4375 73.1406 36.0469H67.1406C67.1406 35.0938 67.0625 34.1953 66.9062 33.3516C66.75 32.4922 66.5312 31.6797 66.25 30.9141C65.9688 30.1328 65.6406 29.3984 65.2656 28.7109C64.9062 28.0234 64.5156 27.3594 64.0938 26.7188C62.6094 27.1406 61.0391 27.4453 59.3828 27.6328C57.7266 27.8047 56 27.8906 54.2031 27.8906C53.125 27.8906 52.0312 27.8594 50.9219 27.7969C49.8125 27.7344 48.7188 27.6562 47.6406 27.5625V35.9531H41.8281V1.54688C42.1719 1.4375 42.7188 1.30469 43.4688 1.14844C44.2344 0.992187 45.1328 0.84375 46.1641 0.703125C47.2109 0.5625 48.375 0.445312 49.6562 0.351562C50.9375 0.242187 52.2812 0.1875 53.6875 0.1875ZM55.375 5.34375C54.3438 5.34375 53.3594 5.39062 52.4219 5.48438C51.4844 5.5625 50.6641 5.65625 49.9609 5.76562C49.1172 5.89062 48.3438 6.03125 47.6406 6.1875V22.2188C48.1406 22.3281 48.6953 22.4219 49.3047 22.5C49.8203 22.5781 50.4219 22.6484 51.1094 22.7109C51.7969 22.7578 52.5312 22.7812 53.3125 22.7812C54.3281 22.7812 55.3984 22.7578 56.5234 22.7109C57.6641 22.6484 58.7891 22.5156 59.8984 22.3125C61.0234 22.1094 62.0859 21.8125 63.0859 21.4219C64.1016 21.0156 64.9922 20.4844 65.7578 19.8281C66.5391 19.1562 67.1562 18.3281 67.6094 17.3438C68.0781 16.3594 68.3125 15.1719 68.3125 13.7812C68.3125 12.625 68.125 11.6094 67.75 10.7344C67.375 9.85938 66.8672 9.10938 66.2266 8.48438C65.5859 7.85938 64.8359 7.34375 63.9766 6.9375C63.1328 6.53125 62.2266 6.21094 61.2578 5.97656C60.3047 5.74219 59.3203 5.57812 58.3047 5.48438C57.3047 5.39062 56.3281 5.34375 55.375 5.34375Z" fill="#34547A"/>
</svg>
